<?xml version="1.0" encoding="UTF-8"?>
<svg id="icon" xmlns="http://www.w3.org/2000/svg" version="1.1" viewBox="0 0 32 32">
  <!-- Generator: Adobe Illustrator 29.8.3, SVG Export Plug-In . SVG Version: 2.1.1 Build 3)  -->
  <defs>
    <style>
      .st0 {
        fill: none;
      }
    </style>
  </defs>
  <path d="M25,3c-2.2081108.00248-3.9975204,1.7918892-4,4,.0037994.7117572.1996555,1.4092913.5669003,2.0190001l-12.5479002,12.5479002c-.6096706-.3673325-1.3072295-.5631943-2.0190001-.5669003-2.2091389,0-4,1.7908611-4,4s1.7908611,4,4,4,4-1.7908611,4-4c-.0038004-.7117577-.1996555-1.4092922-.5669003-2.019001l12.5479012-12.5478992c.6096649.3673449,1.3072262.5632086,2.0189991.5669003,2.2091389,0,4-1.7908611,4-4s-1.7908611-4-4-4ZM7,27c-1.1045694,0-2-.8954296-2-2s.8954306-2,2-2,2,.8954296,2,2c-.0011024,1.1041126-.8958874,1.9988976-2,2ZM25,9c-1.1045704,0-2-.8954306-2-2s.8954296-2,2-2,2,.8954306,2,2c-.0011024,1.1041126-.8958874,1.9988976-2,2Z"/>
  <rect id="_Transparent_Rectangle_" class="st0" width="32" height="32"/>
</svg>