<?xml version="1.0" encoding="UTF-8"?>
<svg id="icon" xmlns="http://www.w3.org/2000/svg" version="1.1" viewBox="0 0 32 32">
  <!-- Generator: Adobe Illustrator 29.8.3, SVG Export Plug-In . SVG Version: 2.1.1 Build 3)  -->
  <defs>
    <style>
      .st0 {
        fill: none;
      }
    </style>
  </defs>
  <rect id="_Transparent_Rectangle_" class="st0" width="32" height="32"/>
  <path d="M16,30c-7.7197266,0-14-6.2802734-14-14S8.2802734,2,16,2s14,6.2802734,14,14-6.2802734,14-14,14ZM16,4c-6.6166992,0-12,5.3833008-12,12,0,6.6171875,5.3833008,12,12,12,6.6171875,0,12-5.3828125,12-12,0-6.6166992-5.3828125-12-12-12Z"/>
  <path d="M16,22c-3.3085938,0-6-2.6914062-6-6s2.6914062-6,6-6,6,2.6914062,6,6-2.6914062,6-6,6ZM16,12c-2.2055664,0-4,1.7944336-4,4,0,2.2060547,1.7944336,4,4,4,2.2060547,0,4-1.7939453,4-4,0-2.2055664-1.7939453-4-4-4Z"/>
  <path d="M16,26c-5.5141602,0-10-4.4863281-10-10,0-5.5141602,4.4858398-10,10-10,5.5136719,0,10,4.4858398,10,10,0,5.5136719-4.4863281,10-10,10ZM16,8c-4.4111328,0-8,3.5888672-8,8s3.5888672,8,8,8,8-3.5888672,8-8-3.5888672-8-8-8Z"/>
</svg>