<?xml version="1.0" encoding="UTF-8"?>
<svg id="icon" xmlns="http://www.w3.org/2000/svg" version="1.1" viewBox="0 0 32 32">
  <!-- Generator: Adobe Illustrator 30.0.0, SVG Export Plug-In . SVG Version: 2.1.1 Build 123)  -->
  <defs>
    <style>
      .st0 {
        fill: none;
      }
    </style>
  </defs>
  <rect id="_Transparent_Rectangle_" class="st0" width="32" height="32" transform="translate(32) rotate(90)"/>
  <path d="M16,19c-1.6542969,0-3-1.3457031-3-3s1.3457031-3,3-3,3,1.3457031,3,3-1.3457031,3-3,3ZM16,15c-.5512695,0-1,.4487305-1,1s.4487305,1,1,1,1-.4487305,1-1-.4487305-1-1-1Z"/>
  <g>
    <circle class="st0" cx="16" cy="3" r="1"/>
    <path d="M18.9137573,2.3151855c-.3115845-1.3239746-1.4959717-2.3151855-2.9137573-2.3151855-1.6542969,0-3,1.3457031-3,3s1.3457031,3,3,3c1.1829834,0,2.1984863-.6940308,2.6865845-1.69104,5.3321533,1.2130127,9.3134155,5.9821167,9.3134155,11.69104,0,6.6300049-5.3699951,12-12,12s-12-5.3699951-12-12c0-5.1500244,3.2399902-9.539978,7.789978-11.2399902l-.7099609-1.8699951c-5.3099976,1.9899902-9.0800171,7.1099854-9.0800171,13.1099854,0,7.7299805,6.2700195,14,14,14s14-6.2700195,14-14c0-6.7269897-4.7510376-12.3501587-11.0862427-13.6848145ZM16,4c-.5512695,0-1-.4487305-1-1s.4487305-1,1-1,1,.4487305,1,1-.4487305,1-1,1Z"/>
  </g>
</svg>