<?xml version="1.0" encoding="UTF-8"?>
<svg id="icon" xmlns="http://www.w3.org/2000/svg" version="1.1" viewBox="0 0 32 32">
  <!-- Generator: Adobe Illustrator 29.8.3, SVG Export Plug-In . SVG Version: 2.1.1 Build 3)  -->
  <defs>
    <style>
      .st0 {
        fill: none;
      }
    </style>
  </defs>
  <rect id="_Transparent_Rectangle_" class="st0" width="32" height="32"/>
  <path d="M25,3c-.9320068,0-1.7792969.3334961-2.460022.869751-4.0734253-2.2104492-9.0288086-2.21875-13.1075439-.022583-.6762085-.5230713-1.5133667-.847168-2.4324341-.847168-2.2055664,0-4,1.7944336-4,4,0,.9190063.3240967,1.7561646.8471069,2.432312-2.1962891,4.0787354-2.1876831,9.0341187.0227051,13.1075439-.5363159.6807251-.869812,1.5280762-.869812,2.460144,0,2.2060547,1.7944336,4,4,4s4-1.7939453,4-4-1.7944336-4-4-4c-.5391235,0-1.0523682.1101685-1.5221558.3043823-1.6885376-3.3248291-1.696106-7.2849731-.0266724-10.6171265.4766846.2009888.9998779.3127441,1.5488281.3127441,2.2055664,0,4-1.7944336,4-4,0-.5488892-.1117554-1.0720215-.3127441-1.5487061,3.3322754-1.6694336,7.2922974-1.6619263,10.6171265.0265503-.1942139.4697876-.3043823.9830322-.3043823,1.5221558,0,2.2055664,1.7939453,4,4,4s4-1.7944336,4-4-1.7939453-4-4-4ZM7,23c1.1030273,0,2,.8974609,2,2s-.8969727,2-2,2-2-.8974609-2-2,.8969727-2,2-2ZM9,7c0,1.1030273-.8969727,2-2,2s-2-.8969727-2-2,.8969727-2,2-2,2,.8969727,2,2ZM25,9c-1.1025391,0-2-.8969727-2-2s.8974609-2,2-2,2,.8969727,2,2-.8974609,2-2,2Z"/>
</svg>