<?xml version="1.0" encoding="UTF-8"?>
<svg id="icon" xmlns="http://www.w3.org/2000/svg" version="1.1" viewBox="0 0 32 32">
  <!-- Generator: Adobe Illustrator 29.8.3, SVG Export Plug-In . SVG Version: 2.1.1 Build 3)  -->
  <defs>
    <style>
      .st0 {
        fill: none;
      }
    </style>
  </defs>
  <rect id="_Transparent_Rectangle_" class="st0" width="32" height="32"/>
  <path d="M26,4H6c-1.1045695,0-2,.8954305-2,2v20c0,1.1045695.8954305,2,2,2h20c1.1045695,0,2-.8954305,2-2V6c0-1.1045695-.8954305-2-2-2ZM20.5,15h-3.5v-3.5h3.5v3.5ZM22.5,11.5h3.5v3.5h-3.5v-3.5ZM17,9.5v-3.5h3.5v3.5h-3.5ZM15,9.5h-3.5v-3.5h3.5v3.5ZM15,11.5v3.5h-3.5v-3.5h3.5ZM9.5,15h-3.5v-3.5h3.5v3.5ZM6,17h3.5v3.5h-3.5v-3.5ZM11.5,17h3.5v3.5h-3.5v-3.5ZM15,22.5v3.5h-3.5v-3.5h3.5ZM17,22.5h3.5v3.5h-3.5v-3.5ZM17,20.5v-3.5h3.5v3.5h-3.5ZM22.5,17h3.5v3.5h-3.5v-3.5ZM26,9.5h-3.5v-3.5h3.5v3.5ZM9.5,6v3.5h-3.5v-3.5h3.5ZM6,22.5h3.5v3.5h-3.5v-3.5ZM22.5,26v-3.5h3.5v3.5h-3.5Z"/>
</svg>