<svg id="icon" xmlns="http://www.w3.org/2000/svg" width="32" height="32" viewBox="0 0 32 32"><defs><style>.cls-1{fill:none;}</style></defs><title>fur-brush</title><path d="M16,16 Q14,12 12,10" stroke="currentColor" stroke-width="1.5" fill="none" stroke-linecap="round"/><path d="M16,16 Q18,12 20,10" stroke="currentColor" stroke-width="1.3" fill="none" stroke-linecap="round"/><path d="M16,16 Q15,13 14,11" stroke="currentColor" stroke-width="1.2" fill="none" stroke-linecap="round"/><path d="M16,16 Q17,13 18,11" stroke="currentColor" stroke-width="1.4" fill="none" stroke-linecap="round"/><path d="M16,16 Q13,14 11,13" stroke="currentColor" stroke-width="1.3" fill="none" stroke-linecap="round"/><path d="M16,16 Q19,14 21,13" stroke="currentColor" stroke-width="1.2" fill="none" stroke-linecap="round"/><path d="M16,16 Q14,18 12,20" stroke="currentColor" stroke-width="1.4" fill="none" stroke-linecap="round"/><path d="M16,16 Q18,18 20,20" stroke="currentColor" stroke-width="1.3" fill="none" stroke-linecap="round"/><path d="M16,16 Q15,19 14,22" stroke="currentColor" stroke-width="1.2" fill="none" stroke-linecap="round"/><path d="M16,16 Q17,19 18,22" stroke="currentColor" stroke-width="1.5" fill="none" stroke-linecap="round"/><rect id="_Transparent_Rectangle_" data-name="&lt;Transparent Rectangle&gt;" class="cls-1" width="32" height="32"/></svg>
