<?xml version="1.0" encoding="UTF-8"?>
<svg id="icon" xmlns="http://www.w3.org/2000/svg" version="1.1" viewBox="0 0 32 32">
  <!-- Generator: Adobe Illustrator 29.8.3, SVG Export Plug-In . SVG Version: 2.1.1 Build 3)  -->
  <defs>
    <style>
      .st0 {
        fill: none;
      }
    </style>
  </defs>
  <rect id="_Transparent_Rectangle_" class="st0" width="32" height="32"/>
  <path d="M28.5039062,8.1361694L16.5039062,1.1361694c-.3112793-.1815796-.6965332-.1815796-1.0078125,0L3.4960938,8.1361694c-.3070679.1792603-.4960938.5083008-.4960938.8638306v14c0,.3554688.1890259.6845703.4960938.8637695l12,7c.3112793.1816406.6965332.1816406,1.0078125,0l12-7c.3070679-.1791992.4960938-.5083008.4960938-.8637695v-14c0-.3555298-.1890259-.6845703-.4960938-.8638306ZM17,3.7410278l9.069397,5.2903442-9.069397,5.2362671V3.7410278ZM15,14.2678833l-9.0696411-5.2363892c1.40448-.8192749,7.5704956-4.4160767,9.0696411-5.2904663v10.5268555ZM13.9994507,16l-8.9994507,5.1958618v-10.3917236l8.9994507,5.1958618ZM15,17.7321167v10.5268555l-9.0696411-5.2904663,9.0696411-5.2363892ZM17,17.7323608l9.069397,5.2362671-9.069397,5.2903442v-10.5266113ZM18.000061,16l8.999939-5.196167v10.392334l-8.999939-5.196167Z"/>
</svg>