<?xml version="1.0" encoding="UTF-8"?>
<svg id="icon" xmlns="http://www.w3.org/2000/svg" version="1.1" viewBox="0 0 32 32">
  <!-- Generator: Adobe Illustrator 29.8.3, SVG Export Plug-In . SVG Version: 2.1.1 Build 3)  -->
  <defs>
    <style>
      .st0 {
        fill: none;
      }
    </style>
  </defs>
  <path d="M8.3190461,22.3189486c-.3998999-.1976004-.8435001-.3188001-1.3187999-.3188002-.4373999,0-.8502999.0989998-1.2254.2680996-1.1576998-1.884-1.7745994-4.0381005-1.774599-6.2681001.0000011-6.6167011,5.3833018-11.9999991,12.000002-11.999998,1.4888.0000002,2.9234008.2673001,4.2831.7893016l1.0026-1.7364996c-1.6711997-.6807006-3.4704989-1.0529009-5.2856997-1.0529012-7.7196999-.0000013-14.000001,6.2802979-14.0000023,13.9999977l-.0000992-.0000019c-.0000004,2.7533998.8006991,5.4114,2.3094985,7.6982006-.1922999.3952999-.3095001.8333001-.3095002,1.3017997-.0000003,1.6542997,1.3456995,3.0000002,2.9999997,3.0000005s3.0000002-1.3456998,3.0000005-2.9999995c0-.4752998-.1211003-.9189-.3187998-1.3186999-.2846707-.5756789-.786537-1.0779001-1.3623007-1.3623993ZM8.0001465,25.0000474c0,.5513-.4487001.9999999-1.0000002.9999998s-.9999999-.4487001-.9999998-1.0000002c0-.5513.4487001-.9999999,1.0000002-.9999998s.9999999.4487001.9999998,1.0000002ZM23.6812498,9.6811509c.3999004.1975995.8435001.3188001,1.3187999.3188002.4400005,0,.8549004-.1005991,1.2318001-.2714994l-.0002995.0002003c1.1587006,1.8836996,1.7685998,4.0331996,1.7685994,6.2712005-.0000011,6.6167002-5.3833008,11.9999991-12.000002,11.999998-1.5706997-.0000003-3.1266994-.3259006-4.5694998-.919401l-1.0037005,1.7383998c1.7512997.7601002,3.6522997,1.1810006,5.5730999,1.1810009,7.7196989.0000013,14.0000001-6.2802976,14.0000013-13.9999975.0000005-2.762001-.8041983-5.4050008-2.3129985-7.6917995h-.0002003c.1942998-.3969001.3132001-.8369998.3132002-1.3082008.0000003-1.6543007-1.3456988-3.0000002-2.9999995-3.0000005s-3.0000002,1.3456988-3.0000005,2.9999995l.0000992.0001984c0,.4752998.1210993.9188996.3187998,1.3187008.2846717.5756798.7865351,1.077902,1.3623007,1.3624003ZM26.0001494,7.0000504c0,.5513-.4487001.9999999-1.0000002.9999998s-.9999999-.4487001-.9999998-1.0000002c0-.5513.4487001-.9999999,1.0000002-.9999998s.9999999.4487001.9999998,1.0000002Z"/>
  <rect id="_Transparent_Rectangle_" class="st0" width="32" height="32"/>
</svg>