<?xml version="1.0" encoding="UTF-8"?>
<svg id="icon" xmlns="http://www.w3.org/2000/svg" version="1.1" viewBox="0 0 32 32">
  <!-- Generator: Adobe Illustrator 30.0.0, SVG Export Plug-In . SVG Version: 2.1.1 Build 123)  -->
  <defs>
    <style>
      .st0 {
        fill: none;
      }
    </style>
  </defs>
  <rect id="_Transparent_Rectangle_" class="st0" width="32" height="32"/>
  <g>
    <path class="st0" d="M23,8.9550171c-.5523071,0-1,.4476929-1,1v6.0449829h-2V6c0-.5523071-.4476929-1-1-1s-1,.4476929-1,1v10h-2V3.9550171c0-.5523071-.4476929-1-1-1s-1,.4476929-1,1v12.0449829h-2V7c0-.5523071-.4476929-1-1-1s-1,.4476929-1,1v15.9000244l-5.4000244-3.7000122c-.1730957-.1298218-.383606-.2000122-.5999756-.2000122-.5523071,0-1,.4476929-1,1,.0010986.2623291.1052856.5137329.289978.7000122l7.9500122,7.2999878c.7683716.6568604,1.7492065,1.012207,2.7600098,1h5c2.7614136,0,5-2.2385864,5-5v-14.0449829c0-.5523071-.4476929-1-1-1Z"/>
    <path d="M23,6.9550171c-.3525391,0-.685791.0720215-1,.1837158v-1.1387329c0-1.6568604-1.3431396-3-3-3-.3903198,0-.7607422.0800171-1.1027832.2156372-.3308105-1.2971802-1.4970093-2.2606201-2.8972168-2.2606201-1.6568604,0-3,1.3431396-3,3v.2286987c-.314209-.1116943-.6474609-.1837158-1-.1837158-1.6568604,0-3,1.3431396-3,3v12.0999756l-2.2299805-1.5199585c-.5112305-.3807373-1.1326294-.5843506-1.7700195-.5800171-1.6568604-.0040894-3.0032959,1.3357544-3.0073853,2.9926147-.0020142.8024292.317627,1.5722656.8873901,2.1373901l8,7.2999878c1.1325684,1.0137329,2.5999756,1.572937,4.1199951,1.5700073h5c3.8659668,0,7-3.1340332,7-7v-14.0449829c0-1.6568604-1.3431396-3-3-3ZM24,24c0,2.7614136-2.2385864,5-5,5h-5c-1.0108032.012207-1.9916382-.3431396-2.7600098-1l-7.9500122-7.2999878c-.1846924-.1862793-.2888794-.4376831-.289978-.7000122,0-.5523071.4476929-1,1-1,.2163696,0,.4268799.0701904.5999756.2000122l5.4000244,3.7000122V7c0-.5523071.4476929-1,1-1s1,.4476929,1,1v9h2V3.9550171c0-.5523071.4476929-1,1-1s1,.4476929,1,1v12.0449829h2V6c0-.5523071.4476929-1,1-1s1,.4476929,1,1v10h2v-6.0449829c0-.5523071.4476929-1,1-1s1,.4476929,1,1v14.0449829Z"/>
  </g>
</svg>