<?xml version="1.0" encoding="UTF-8"?>
<svg id="icon" xmlns="http://www.w3.org/2000/svg" version="1.1" viewBox="0 0 32 32">
  <!-- Generator: Adobe Illustrator 29.8.3, SVG Export Plug-In . SVG Version: 2.1.1 Build 3)  -->
  <defs>
    <style>
      .st0 {
        fill: none;
      }
    </style>
  </defs>
  <rect id="_Transparent_Rectangle_" class="st0" width="32" height="32"/>
  <path d="M25,3c-1.874939,0-3.4404297,1.3010864-3.8717041,3.0441895-8.1256714.4411011-14.6430054,6.9584351-15.0841064,15.0841064-1.743103.4312744-3.0441895,1.9967651-3.0441895,3.8717041,0,2.2060547,1.7944336,4,4,4s4-1.7939453,4-4c0-1.8429565-1.2590332-3.3825684-2.9572144-3.8446655.4234619-7.0449219,6.067627-12.6890869,13.1125488-13.1125488.4620972,1.6981812,2.001709,2.9572144,3.8446655,2.9572144,2.2060547,0,4-1.7944336,4-4s-1.7939453-4-4-4ZM7,27c-1.1030273,0-2-.8974609-2-2s.8969727-2,2-2,2,.8974609,2,2-.8969727,2-2,2ZM25,9c-1.1025391,0-2-.8969727-2-2s.8974609-2,2-2,2,.8969727,2,2-.8974609,2-2,2Z"/>
</svg>