<?xml version="1.0" encoding="UTF-8"?>
<svg id="icon" xmlns="http://www.w3.org/2000/svg" version="1.1" viewBox="0 0 32 32">
  <!-- Generator: Adobe Illustrator 29.8.3, SVG Export Plug-In . SVG Version: 2.1.1 Build 3)  -->
  <defs>
    <style>
      .st0 {
        fill: none;
      }
    </style>
  </defs>
  <rect id="_Transparent_Rectangle_" class="st0" width="32" height="32"/>
  <g>
    <path class="st0" d="M25,11c-2.2060547,0-4-1.7944336-4-4,0-.5180054.1064453-1.0098877.286499-1.4646606-1.6199951-.8203735-3.4178467-1.2633667-5.286499-1.2633667-3.1328125,0-6.0776367,1.2197266-8.2929688,3.4350586s-3.4350586,5.1601562-3.4350586,8.2929688c0,1.8686523.4429932,3.6665039,1.2633667,5.286499.4547729-.1800537.9466553-.286499,1.4646606-.286499,2.2055664,0,4,1.7939453,4,4,0,.5180664-.1065063,1.0098877-.286499,1.4645996,1.6200562.8206177,3.4177856,1.263916,5.286499,1.263916,3.1328125,0,6.078125-1.2207031,8.2929688-3.4355469s3.4355469-5.1601562,3.4355469-8.2929688c0-1.8687134-.4432983-3.6664429-1.263916-5.286499-.4547119.1799927-.9465332.286499-1.4645996.286499Z"/>
    <path d="M28.0969238,9.5003662c.5559082-.6871338.9030762-1.5496826.9030762-2.5003662,0-2.2055664-1.7939453-4-4-4-.9508667,0-1.8134155.347168-2.5004883.9031372-1.9746094-1.0643921-4.1931152-1.6311646-6.4995117-1.6311646-3.6669922,0-7.1142578,1.4282227-9.7070312,4.0209961s-4.0209961,6.0400391-4.0209961,9.7070312c0,2.3063965.5667725,4.5249023,1.6311646,6.4995117-.5559692.6870728-.9031372,1.5496216-.9031372,2.5004883,0,2.2060547,1.7944336,4,4,4,.9506836,0,1.8132324-.347168,2.5003662-.9030762,1.9746094,1.0645752,4.1931763,1.6315918,6.4996338,1.6315918,3.6669922,0,7.1142578-1.4287109,9.7070312-4.0214844s4.0214844-6.0400391,4.0214844-9.7070312c0-2.3064575-.5670166-4.5250244-1.6315918-6.4996338ZM25,5c1.1025391,0,2,.8969727,2,2s-.8974609,2-2,2-2-.8969727-2-2,.8974609-2,2-2ZM7,27c-1.1030273,0-2-.8974609-2-2s.8969727-2,2-2,2,.8974609,2,2-.8969727,2-2,2ZM24.2929688,24.2929688c-2.2148438,2.2148438-5.1601562,3.4355469-8.2929688,3.4355469-1.8687134,0-3.6664429-.4432983-5.286499-1.263916.1799927-.4547119.286499-.9465332.286499-1.4645996,0-2.2060547-1.7944336-4-4-4-.5180054,0-1.0098877.1064453-1.4646606.286499-.8203735-1.6199951-1.2633667-3.4178467-1.2633667-5.286499,0-3.1328125,1.2197266-6.0776367,3.4350586-8.2929688s5.1601562-3.4350586,8.2929688-3.4350586c1.8686523,0,3.6665039.4429932,5.286499,1.2633667-.1800537.4547729-.286499.9466553-.286499,1.4646606,0,2.2055664,1.7939453,4,4,4,.5180664,0,1.0098877-.1065063,1.4645996-.286499.8206177,1.6200562,1.263916,3.4177856,1.263916,5.286499,0,3.1328125-1.2207031,6.078125-3.4355469,8.2929688Z"/>
  </g>
</svg>