<?xml version="1.0" encoding="UTF-8"?>
<svg id="icon" xmlns="http://www.w3.org/2000/svg" version="1.1" viewBox="0 0 32 32">
  <!-- Generator: Adobe Illustrator 29.8.3, SVG Export Plug-In . SVG Version: 2.1.1 Build 3)  -->
  <defs>
    <style>
      .st0 {
        fill: none;
      }
    </style>
  </defs>
  <path d="M21.6700001,2.5900002L2.5799999,21.6599998c-.7814829.7806139-.7821872,2.0469437-.0015733,2.8284268.0005243.0005245.0010486.001049.0015733.0015731l4.9300003,4.9200003c.7800751.775447,2.0399246.775447,2.8199997,0L29.4200001,10.3400002c.3743725-.3774376.5830727-.8883934.5799999-1.4200001.0004215-.5281448-.2080784-1.035017-.5799999-1.4099998l-4.9300003-4.9200001c-.7800751-.7754478-2.0399246-.7754478-2.8199997,0ZM28,8.9200001L8.9200001,28l-4.9200001-4.9200001,3.79-3.79,2.21,2.25,1.4099998-1.4099998-2.21-2.25,4.1300001-4.1300001,2.25,2.25,1.4200001-1.4200001-2.25-2.25,4.1300011-4.1299992,2.25,2.25,1.4099998-1.4500008-2.25-2.25,2.789999-2.75,4.9200001,4.9200001Z"/>
  <rect id="_Transparent_Rectangle_" class="st0" width="32" height="32" transform="translate(0 32) rotate(-90)"/>
</svg>