<?xml version="1.0" encoding="UTF-8"?>
<svg id="icon" xmlns="http://www.w3.org/2000/svg" version="1.1" viewBox="0 0 32 32">
  <!-- Generator: Adobe Illustrator 29.8.3, SVG Export Plug-In . SVG Version: 2.1.1 Build 3)  -->
  <defs>
    <style>
      .st0 {
        fill: none;
      }
    </style>
  </defs>
  <rect id="_Transparent_Rectangle_" class="st0" width="32" height="32"/>
  <path d="M26.7279136,24.9750003c1.0490003.0939999,2.1171-.3530006,2.7514999-1.2833996.9323-1.3672009.5785999-3.2376995-.7886-4.169899-1.3672001-.9323997-3.2376997-.5785999-4.1700003.7886009-.8151999,1.1952991-.6469002,2.7754002.3221002,3.7768993-3.9611001,4.3311005-10.6123004,5.2243996-15.5992007,1.8237-.2493-.1700001-.4806995-.3560009-.7129993-.5410004l-1.4256001,1.4255009c.3243999.2670994.6580009.5265999,1.0116997.7677994,5.9932003,4.0868988,14.0513,2.8654003,18.6110001-2.5881004l.0001006-.0001011ZM26.4366138,22.8273009c-.4555998-.3106995-.5735002-.9342995-.2628999-1.3899002.3106999-.4556999.9344001-.5736008,1.3899999-.2628994.4556.3106995.5734999.9342995.2628999,1.3899994-.3106999.4556007-.9344001.5736008-1.3899999.2628002ZM23.8921139,4.4300002c-1.5500002-1.0570002-3.2413006-1.724-4.9717007-2.0836-.1604996-.7174001-.5748005-1.3798-1.2285995-1.8257-1.3671999-.9323-3.2376995-.5786-4.1700001.7886-.9323006,1.3671999-.5785999,3.2377999.7886009,4.1700003,1.3672009.9323001,3.2376995.5785999,4.1700001-.7886.0808001-.1185002.1394005-.2449002.2010002-.3699999,1.4210997.3211999,2.8081999.8916001,4.0839005,1.7616,3.6940999,2.5191998,5.5295,6.7515998,5.1863999,10.9185996h1.9998999c.3378-4.8071003-1.7990999-9.6654997-6.0595012-12.5709ZM15.4375145,3.8265003c-.4556007-.3106999-.5734997-.9344001-.2628994-1.3899999s.9343996-.5734999,1.3900003-.2628999c.4555998.3108001.5734997.9345999.2628002,1.3901-.3107004.4555998-.9343996.5735002-1.3900003.2628002l.0000992-.0000005ZM7.4794133,23.6916007c.9323006-1.3672009.5785999-3.2376995-.7886009-4.169899-.6842003-.4666004-1.4944-.6110001-2.2500992-.4675007-.8630009-3.2476997-.3889008-6.8290997,1.6494999-9.8184004,1.2735996-1.8676996,2.9902992-3.2495003,4.9097996-4.1278v-2.1733c-2.5778008.9833-4.8934002,2.7271998-6.5622005,5.1743004-2.4958992,3.6599998-2.9792004,8.0802002-1.7588997,12.0131989-.0517998.0639992-.1110001.1189003-.1581993.1881008-.9323006,1.3672009-.5785999,3.2376995.7886009,4.1699009,1.3670998.9323997,3.2376995.5785999,4.1700001-.7886009h.0000992ZM4.4366143,22.8273009c-.4556007-.3106995-.5734997-.9342995-.2628994-1.3899002.3106995-.4556999.9344006-.5736008,1.3899994-.2628994.4556007.3106995.5734997.9342995.2628994,1.3899994-.3106995.4556007-.9344006.5736008-1.3899994.2628002Z"/>
</svg>