<?xml version="1.0" encoding="UTF-8"?>
<svg id="icon" xmlns="http://www.w3.org/2000/svg" version="1.1" viewBox="0 0 32 32">
  <!-- Generator: Adobe Illustrator 30.0.0, SVG Export Plug-In . SVG Version: 2.1.1 Build 123)  -->
  <defs>
    <style>
      .st0 {
        fill: none;
      }
    </style>
  </defs>
  <path d="M23.1700001,3.1700001l-5.8400002,5.8299999h-4.3299999c-.2658033-.0015373-.5212812.1028137-.71.2900009L2.29,19.2900009c-.3921221.3889198-.3947182,1.0220795-.0057983,1.4142017.0019248.0019407.0038576.0038738.0057983.0057983l9,9c.3889198.3921221,1.0220795.3947182,1.4142017.0057983.0019407-.0019248.0038738-.0038576.0057983-.0057983l9.999999-10c.1871872-.1887188.2915382-.4441977.2900009-.710001v-4.3400002l5.8400002-5.8299999c1.5629654-1.5629654,1.5629654-4.0970345,0-5.6599998s-4.0970345-1.5629654-5.6599998,0h-.0100002ZM10.4099998,26l2.3000002-2.29-1.4200001-1.4200001-2.29,2.3000002-1.5900002-1.5900002,4.3000002-4.29-1.4200001-1.4200001-4.29,4.3000002-1.5900002-1.5900002,6.5900002-6.5900002,7.5900002,7.5900002-6.5900002,6.5900002-1.5900002-1.5900002ZM27.4099998,4.5900002c.7754478.7800751.7754478,2.0399246,0,2.8199997l-6.1199989,6.1300011c-.1465492.2130852-.2454605.4552479-.2900009.7099991v4.3400002l-1,1-7.5900002-7.5900002,1-1h4.3400002c.2623405-.0011044.5137405-.105257.7000008-.2900009l6.1399994-6.1199989c.7800751-.7754478,2.0399246-.7754478,2.8199997,0Z"/>
  <rect id="_Transparent_Rectangle_" class="st0" width="32" height="32" transform="translate(0 32) rotate(-90)"/>
</svg>