<?xml version="1.0" encoding="UTF-8"?>
<svg id="icon" xmlns="http://www.w3.org/2000/svg" version="1.1" viewBox="0 0 32 32">
  <!-- Generator: Adobe Illustrator 29.8.3, SVG Export Plug-In . SVG Version: 2.1.1 Build 3)  -->
  <defs>
    <style>
      .st0 {
        fill: none;
      }
    </style>
  </defs>
  <circle cx="16" cy="16" r="2"/>
  <rect id="_Transparent_Rectangle_" class="st0" width="32" height="32"/>
  <g>
    <circle class="st0" cx="27" cy="27" r="2"/>
    <path d="M5,9c2.2091675,0,4-1.7908325,4-4,0-.0236816-.0065308-.0455322-.006958-.0690918.2610474-.0744629.512146-.1543579.7869873-.2208862,1.8099976-.4400024,3.9099731-.710022,6.2199707-.710022,7.7000122,0,13,2.9000244,13,5.5,0,2.0999756-3.5999756,4.5-9.0999756,5.2000122l.2999878,2c6.2999878-.9000244,10.7999878-3.7000122,10.7999878-7.2000122,0-4.2000122-6.5999756-7.5-15-7.5-2.710022,0-5.2299805.3499756-7.4000244.960022-.052002.0146484-.098999.0327759-.1505737.0477295-.6917725-1.1948242-1.9694214-2.0077515-3.4494019-2.0077515C2.7908325,1,1,2.7908325,1,5s1.7908325,4,4,4ZM5,3c1.1027832,0,2,.8972168,2,2s-.8972168,2-2,2-2-.8972168-2-2,.8972168-2,2-2Z"/>
    <path d="M27,23c-2.2091675,0-4,1.7908325-4,4,0,.0263672.0072632.0506592.0077515.0769043-.2581787.0734863-.5161133.1472778-.7877808.2130737-1.8099976.4400024-3.9099731.710022-6.2199707.710022-7.7000122,0-13-2.9000244-13-5.5,0-2.0999756,3.5999756-4.5,9.0999756-5.2000122l-.2999878-2c-6.2999878.9000244-10.7999878,3.7000122-10.7999878,7.2000122,0,4.2000122,6.5999756,7.5,15,7.5,2.710022,0,5.2299805-.3499756,7.4000244-.960022.0517578-.0145874.0998535-.0316162.1511841-.0465088.6919556,1.1941528,1.9692993,2.0065308,3.4487915,2.0065308,2.2091675,0,4-1.7908325,4-4s-1.7908325-4-4-4ZM27,29c-1.1027832,0-2-.8972168-2-2s.8972168-2,2-2,2,.8972168,2,2-.8972168,2-2,2Z"/>
  </g>
</svg>