<?xml version="1.0" encoding="UTF-8"?>
<svg id="icon" xmlns="http://www.w3.org/2000/svg" version="1.1" viewBox="0 0 32 32">
  <!-- Generator: Adobe Illustrator 29.8.3, SVG Export Plug-In . SVG Version: 2.1.1 Build 3)  -->
  <defs>
    <style>
      .st0 {
        fill: none;
      }

      .st1 {
        font-family: MyriadPro-Regular, 'Myriad Pro';
        font-size: 12px;
      }

      .st2 {
        fill: #fff;
        stroke: #000;
        stroke-miterlimit: 10;
        stroke-width: 2px;
      }
    </style>
  </defs>
  <path d="M13,28c0,1.6543007,1.3457003,3,3,3,1.6543007,0,3-1.3456993,3-3,0-1.3019009-.838501-2.4015999-2-2.8157005v-7.1842995h-2v7.1842995c-1.1615.4141006-2,1.5137997-2,2.8157005ZM16,27c.5517998,0,1,.4487,1,1s-.4482002,1-1,1-1-.4487-1-1,.4482002-1,1-1ZM15,6.8157001v7.1842999h2v-7.1842999c1.161499-.4141002,2-1.5137,2-2.8157001,0-1.6543-1.3456993-3-3-3s-3,1.3457-3,3c0,1.3018999.8385,2.4015999,2,2.8157001ZM15,4c0-.5513.4482002-1,1-1s1,.4487,1,1-.4482002,1-1,1-1-.4487-1-1Z"/>
  <rect id="_Transparent_Rectangle_" class="st0" width="32" height="32"/>
  <circle class="st2" cx="16" cy="16" r="2"/>
  <text class="st1" transform="translate(500 500)"><tspan x="0" y="0">straightedge</tspan></text>
  <path d="M20.6572266,14.3720703l3.4455566-2.0675049c.5186157.4277954,1.1739502.6954346,1.8972168.6954346,1.6542969,0,3-1.3457031,3-3s-1.3457031-3-3-3-3,1.3457031-3,3c0,.2045898.0212402.4042969.0604248.5975342l-3.4324951,2.0596924,1.0292969,1.7148438ZM27,10c0,.5512695-.4482422,1-1,1s-1-.4487305-1-1,.4482422-1,1-1,1,.4487305,1,1Z"/>
  <path d="M11.3427734,17.6279297l-3.4455566,2.0675049c-.5186157-.4277954-1.1739502-.6954346-1.8972168-.6954346-1.6542969,0-3,1.3457031-3,3s1.3457031,3,3,3,3-1.3457031,3-3c0-.2045898-.0212402-.4042969-.0604248-.5975342l3.4324951-2.0596924-1.0292969-1.7148438ZM5,22c0-.5517578.4487305-1,1-1s1,.4482422,1,1-.4487305,1-1,1-1-.4482422-1-1Z"/>
  <path d="M9,10c0-1.6542969-1.3457031-3-3-3s-3,1.3457031-3,3,1.3457031,3,3,3c.7232666,0,1.3786011-.2676392,1.8972168-.6954346l3.4455566,2.0675049,1.0292969-1.7148438-3.4324951-2.0596924c.0391846-.1932373.0604248-.3929443.0604248-.5975342ZM6,11c-.5512695,0-1-.4487305-1-1s.4487305-1,1-1,1,.4487305,1,1-.4487305,1-1,1Z"/>
  <path d="M26,19c-.7232666,0-1.3786011.2676392-1.8972168.6954346l-3.4455566-2.0675049-1.0292969,1.7148438,3.4324951,2.0596924c-.0391846.1932373-.0604248.3929443-.0604248.5975342,0,1.6542969,1.3457031,3,3,3s3-1.3457031,3-3-1.3457031-3-3-3ZM26,21c.5517578,0,1,.4482422,1,1s-.4482422,1-1,1-1-.4482422-1-1,.4482422-1,1-1Z"/>
</svg>