<?xml version="1.0" encoding="UTF-8"?>
<svg id="icon" xmlns="http://www.w3.org/2000/svg" version="1.1" viewBox="0 0 32 32">
  <!-- Generator: Adobe Illustrator 29.8.3, SVG Export Plug-In . SVG Version: 2.1.1 Build 3)  -->
  <defs>
    <style>
      .st0 {
        fill: none;
      }
    </style>
  </defs>
  <rect id="_Transparent_Rectangle_" class="st0" width="32" height="32"/>
  <g>
    <polygon points="12 14 10 14 10 16 12 16 12 15 12 14"/>
    <rect x="14" y="10" width="2" height="2"/>
    <path d="M12,10c-1.1040649.0012817-1.9987183.8959351-2,2h2v-2Z"/>
    <path d="M28,10h-6v-6c-.0012817-1.1040649-.8959351-1.9987183-2-2H4c-1.1040039.0014038-1.9985962.8959961-2,2v16c.0014038,1.1040039.8959961,1.9985962,2,2h6v6c0,1.1045532.8954468,2,2,2h16c1.1045532,0,2-.8954468,2-2V12c0-1.1045532-.8954468-2-2-2ZM20,10h-2v2h2v8h-8v-2h-2v2h-6l-.0012207-16h16.0012207v6Z"/>
  </g>
</svg>