<?xml version="1.0" encoding="UTF-8"?>
<svg id="icon" xmlns="http://www.w3.org/2000/svg" version="1.1" viewBox="0 0 32 32">
  <!-- Generator: Adobe Illustrator 30.0.0, SVG Export Plug-In . SVG Version: 2.1.1 Build 123)  -->
  <defs>
    <style>
      .st0 {
        fill: none;
      }
    </style>
  </defs>
  <path d="M12,10h10v-6c0-1.1045694-.8954296-2-2-2H4c-1.1045694,0-2,.8954306-2,2v16c0,1.1045704.8954306,2,2,2h6v-10c0-1.1045694.8954306-2,2-2Z"/>
  <path d="M28,10h-6v10c0,1.1045704-.8954296,2-2,2h-10v6c0,1.1045704.8954306,2,2,2h16c1.1045704,0,2-.8954296,2-2V12c0-1.1045694-.8954296-2-2-2Z"/>
  <rect id="_Transparent_Rectangle_" class="st0" width="32" height="32"/>
  <rect x="12" y="12" width="8" height="8"/>
</svg>