<?xml version="1.0" encoding="UTF-8"?>
<svg id="icon" xmlns="http://www.w3.org/2000/svg" version="1.1" viewBox="0 0 32 32">
  <!-- Generator: Adobe Illustrator 29.8.3, SVG Export Plug-In . SVG Version: 2.1.1 Build 3)  -->
  <defs>
    <style>
      .st0 {
        fill: none;
        stroke: #000;
        stroke-miterlimit: 10;
        stroke-width: 2px;
      }
    </style>
  </defs>
  <path class="st0" d="M29,16c0,4.9699707-4.0300293,9-9,9-1.4299927,0-2.7999878-.3400269-4-.9400024-2.960022-1.4699707-5-4.5299683-5-8.0599976s2.039978-6.5900269,5-8.0599976c1.2000122-.5999756,2.5700073-.9400024,4-.9400024,4.9699707,0,9,4.0300293,9,9Z"/>
  <path class="st0" d="M16,24.0599976c-1.2000122.5999756-2.5700073.9400024-4,.9400024-4.9699707,0-9-4.0300293-9-9S7.0300293,7,12,7c1.4299927,0,2.7999878.3400269,4,.9400024-2.960022,1.4699707-5,4.5299683-5,8.0599976s2.039978,6.5900269,5,8.0599976Z"/>
</svg>