<?xml version="1.0" encoding="UTF-8"?>
<svg id="icon" xmlns="http://www.w3.org/2000/svg" version="1.1" viewBox="0 0 32 32">
  <!-- Generator: Adobe Illustrator 30.0.0, SVG Export Plug-In . SVG Version: 2.1.1 Build 123)  -->
  <defs>
    <style>
      .st0, .st1 {
        fill: none;
      }

      .st2, .st1 {
        stroke: #000;
        stroke-miterlimit: 10;
        stroke-width: 2px;
      }
    </style>
  </defs>
  <rect id="_Transparent_Rectangle_" class="st0" width="32" height="32"/>
  <path class="st2" d="M29,19c0,5.5200195-4.4799805,10-10,10-4.3300171,0-8.0200195-2.75-9.4000244-6.5999756,1.0599976.3899536,2.210022.5999756,3.4000244.5999756,5.5200195,0,10-4.4799805,10-10,0-1.1900024-.210022-2.3400269-.5999756-3.4000244,3.8499756,1.3800049,6.5999756,5.0700073,6.5999756,9.4000244Z"/>
  <path class="st1" d="M23,13c0,5.5200195-4.4799805,10-10,10-1.1900024,0-2.3400269-.210022-3.4000244-.5999756-3.8499756-1.3800049-6.5999756-5.0700073-6.5999756-9.4000244C3,7.4799805,7.4799805,3,13,3c4.3300171,0,8.0200195,2.75,9.4000244,6.5999756.3899536,1.0599976.5999756,2.210022.5999756,3.4000244Z"/>
</svg>