<?xml version="1.0" encoding="UTF-8"?>
<svg id="icon" xmlns="http://www.w3.org/2000/svg" version="1.1" viewBox="0 0 32 32">
  <!-- Generator: Adobe Illustrator 30.0.0, SVG Export Plug-In . SVG Version: 2.1.1 Build 123)  -->
  <defs>
    <style>
      .st0 {
        fill: none;
      }
    </style>
  </defs>
  <rect id="_Transparent_Rectangle_" class="st0" width="32" height="32"/>
  <path d="M23.1699829,8.8300171c-1.6699829-4.1000366-5.7000122-6.8300171-10.1699829-6.8300171C6.9299927,2,2,6.9299927,2,13c0,4.4799805,2.7299805,8.5100098,6.8300171,10.1699829,1.6699829,4.1000366,5.7000122,6.8300171,10.1699829,6.8300171,6.0700073,0,11-4.9299927,11-11,0-4.4699707-2.7299805-8.5-6.8300171-10.1699829ZM4,13c0-4.960022,4.039978-9,9-9,3.789978,0,7.1900024,2.3900146,8.460022,5.9500122.3599854.9699707.539978,1.9899902.539978,3.0499878,0,4.960022-4.039978,9-9,9-1.0599976,0-2.0800171-.1799927-3.0599976-.539978-.039978-.0100098-.0800171-.0300293-.1199951-.0500488-3.4799805-1.2999878-5.8200073-4.6599731-5.8200073-8.4099731Z"/>
</svg>