<svg width="16" height="16" viewBox="0 0 16 16" fill="none" xmlns="http://www.w3.org/2000/svg">
<g clip-path="url(#clip0_6463_153)">
<path d="M-4.37114e-08 0L0 1L1 1L1 -4.37114e-08L-4.37114e-08 0Z" fill="black"/>
<path d="M5 0L5 1L6 1L6 -4.37114e-08L5 0Z" fill="black"/>
<path d="M10 0L10 1L11 1L11 -4.37114e-08L10 0Z" fill="black"/>
<path d="M15 0L15 1L16 1L16 -4.37114e-08L15 0Z" fill="black"/>
<path d="M-4.37114e-08 5L0 6L1 6L1 5L-4.37114e-08 5Z" fill="black"/>
<path d="M5 5L5 6L6 6L6 5L5 5Z" fill="black"/>
<path d="M10 5L10 6L11 6L11 5L10 5Z" fill="black"/>
<path d="M15 5L15 6L16 6L16 5L15 5Z" fill="black"/>
<path d="M-4.37114e-08 10L0 11L1 11L1 10L-4.37114e-08 10Z" fill="black"/>
<path d="M5 10L5 11L6 11L6 10L5 10Z" fill="black"/>
<path d="M10 10L10 11L11 11L11 10L10 10Z" fill="black"/>
<path d="M15 10L15 11L16 11L16 10L15 10Z" fill="black"/>
<path d="M-4.37114e-08 15L0 16L1 16L1 15L-4.37114e-08 15Z" fill="black"/>
<path d="M5 15L5 16L6 16L6 15L5 15Z" fill="black"/>
<path d="M10 15L10 16L11 16L11 15L10 15Z" fill="black"/>
<path d="M15 15L15 16L16 16L16 15L15 15Z" fill="black"/>
</g>
<defs>
<clipPath id="clip0_6463_153">
<rect width="16" height="16" fill="white"/>
</clipPath>
</defs>
</svg>
