<svg width="16" height="16" viewBox="0 0 16 16" fill="none" xmlns="http://www.w3.org/2000/svg">
<path d="M12.8 1.23978e-05L12.8 3.20001L16 3.20001L16 1.22579e-05L12.8 1.23978e-05Z" fill="black"/>
<path d="M12.8 6.40001L12.8 9.60001L16 9.60001L16 6.40001L12.8 6.40001Z" fill="black"/>
<path d="M-1.39876e-07 12.8L0 16L3.2 16L3.2 12.8L-1.39876e-07 12.8Z" fill="black"/>
<path d="M6.4 12.8L6.4 16L9.6 16L9.6 12.8L6.4 12.8Z" fill="black"/>
<path d="M12.8 12.8L12.8 16L16 16L16 12.8L12.8 12.8Z" fill="black"/>
<path d="M-1.39876e-07 1.23978e-05L0 3.20001L3.2 3.20001L3.2 1.22579e-05L-1.39876e-07 1.23978e-05Z" fill="black"/>
<path d="M6.4 1.23978e-05L6.4 3.20001L9.6 3.20001L9.6 1.22579e-05L6.4 1.23978e-05Z" fill="black"/>
<path d="M3.2 3.19999L3.2 6.39999L6.4 6.39999L6.4 3.19999L3.2 3.19999Z" fill="black"/>
<path d="M9.6 3.19999L9.6 6.39999L12.8 6.39999L12.8 3.19999L9.6 3.19999Z" fill="black"/>
<path d="M-1.39876e-07 6.40001L0 9.60001L3.2 9.60001L3.2 6.40001L-1.39876e-07 6.40001Z" fill="black"/>
<path d="M6.4 6.40001L6.4 9.60001L9.6 9.60001L9.6 6.40001L6.4 6.40001Z" fill="black"/>
<path d="M3.2 9.59999L3.2 12.8L6.4 12.8L6.4 9.59999L3.2 9.59999Z" fill="black"/>
<path d="M9.6 9.59999L9.6 12.8L12.8 12.8L12.8 9.59999L9.6 9.59999Z" fill="black"/>
</svg>
