<?xml version="1.0" encoding="UTF-8"?>
<svg id="Layer_1" xmlns="http://www.w3.org/2000/svg" version="1.1" viewBox="0 0 32 32">
  <!-- Generator: Adobe Illustrator 29.8.3, SVG Export Plug-In . SVG Version: 2.1.1 Build 3)  -->
  <path d="M26,25l-1.4099998-1.4099998-2.5900002,2.5799999v-9.1700001c-.0042992-3.8642116-3.135788-6.9957013-7-7h-5v2h5c2.7601223.0031414,4.9968586,2.2398787,5,5v9.1700001l-2.5900002-2.5799999-1.4099998,1.4099998,5,5,5-5Z"/>
  <path d="M7,6l1.4099998,1.4099998-2.5799999,2.5900002h9.1700001c3.864212.0042987,6.9957008,3.1357889,7,7v5h-2v-5c-.0031414-2.7601213-2.2398777-4.9968586-5-5H5.8299999l2.5799999,2.5900002-1.4099998,1.4099998L2,11l5-5Z"/>
</svg>