<?xml version="1.0" encoding="UTF-8"?>
<svg id="icon" xmlns="http://www.w3.org/2000/svg" version="1.1" viewBox="0 0 32 32">
  <!-- Generator: Adobe Illustrator 29.8.3, SVG Export Plug-In . SVG Version: 2.1.1 Build 3)  -->
  <defs>
    <style>
      .st0 {
        fill: none;
      }
    </style>
  </defs>
  <rect id="_Transparent_Rectangle_" class="st0" width="32" height="32"/>
  <path d="M29,15c-6.6199951,0-12-5.3800049-12-12v-1h-2v1c0,6.6199951-5.3800049,12-12,12h-1v2h1c6.6199951,0,12,5.3800049,12,12v1h2v-1c0-6.6199951,5.3800049-12,12-12h1v-2h-1ZM16,23.8099976c-1.4199829-3.5499878-4.2600098-6.3900146-7.8099976-7.8099976,3.5499878-1.4199829,6.3900146-4.2600098,7.8099976-7.8099976,1.4199829,3.5499878,4.2600098,6.3900146,7.8099976,7.8099976-3.5499878,1.4199829-6.3900146,4.2600098-7.8099976,7.8099976Z"/>
</svg>