<?xml version="1.0" encoding="UTF-8"?>
<svg id="icon" xmlns="http://www.w3.org/2000/svg" version="1.1" viewBox="0 0 32 32">
  <!-- Generator: Adobe Illustrator 29.8.3, SVG Export Plug-In . SVG Version: 2.1.1 Build 3)  -->
  <defs>
    <style>
      .st0 {
        fill: none;
      }
    </style>
  </defs>
  <path d="M21,2h-10C6,2,2,6,2,11v10c0,5,4,9,9,9h10c5,0,9-4,9-9v-10c0-5-4-9-9-9ZM28,21c0,3.8999996-3.1000004,7-7,7h-10c-3.9000001,0-7-3.1000004-7-7v-10c0-3.9000001,3.0999999-7,7-7h10c3.8999996,0,7,3.0999999,7,7v10Z"/>
  <rect id="_Transparent_Rectangle_" class="st0" width="32" height="32"/>
</svg>