<?xml version="1.0" encoding="UTF-8"?>
<svg id="icon" xmlns="http://www.w3.org/2000/svg" version="1.1" viewBox="0 0 32 32">
  <!-- Generator: Adobe Illustrator 29.8.3, SVG Export Plug-In . SVG Version: 2.1.1 Build 3)  -->
  <defs>
    <style>
      .st0 {
        fill: none;
      }
    </style>
  </defs>
  <rect id="_Transparent_Rectangle_" class="st0" width="32" height="32"/>
  <g>
    <path class="st0" d="M26,13h1.6051025c-.2754517-1.0643311-.6893921-2.0710449-1.2286987-3h-4.3764038v-4.3764038c-.928894-.5392456-1.9356079-.9532471-3-1.2286987v1.6051025h-6v-1.6050415c-1.0643311.2755127-2.0710449.6894531-3,1.2287598v4.3762817h-4.3762817c-.5393066.9289551-.9532471,1.9356689-1.2287598,3h1.6050415v6h-1.6051025c.2754517,1.0643921.6894531,2.071106,1.2286987,3h4.3764038v4.3764038c.9289551.5393066,1.9356689.9532471,3,1.2286987v-1.6051025h6v1.6051636c1.0643921-.2754517,2.071106-.6893921,3-1.2286377v-4.3765259h4.3765259c.5392456-.928894.953186-1.9356079,1.2286377-3h-1.6051636v-6Z"/>
    <path d="M32,19v-6h-2.3318481c-.3283081-1.4963989-.9023438-2.8978271-1.6681519-4.1738892v-4.8261108h-4.8261108c-1.276062-.7658081-2.6774902-1.3398438-4.1738892-1.6681519V0h-6v2.3318481c-1.4963989.3283081-2.8978271.9023438-4.1738892,1.6681519h-4.8261108v4.8261108c-.7658081,1.276062-1.3398438,2.6774902-1.6681519,4.1738892H0v6h2.3318481c.3283081,1.4963989.9023438,2.8978271,1.6681519,4.1738892v4.8261108h4.8261108c1.276062.7658081,2.6774902,1.3398438,4.1738892,1.6681519v2.3318481h6v-2.3318481c1.4963989-.3283081,2.8978271-.9023438,4.1738892-1.6681519h4.8261108v-4.8261108c.7658081-1.276062,1.3398438-2.6774902,1.6681519-4.1738892h2.3318481ZM30,17h-2v-2h2v2ZM26,8h-2v-2h2v2ZM15,4v-2h2v2h-2ZM6,6h2v2h-2v-2ZM2,15h2v2h-2v-2ZM6,24h2v2h-2v-2ZM17,28v2h-2v-2h2ZM26,26h-2v-2h2v2ZM26.3765259,22h-4.3765259v4.3765259c-.928894.5392456-1.9356079.953186-3,1.2286377v-1.6051636h-6v1.6051025c-1.0643311-.2754517-2.0710449-.6893921-3-1.2286987v-4.3764038h-4.3764038c-.5392456-.928894-.9532471-1.9356079-1.2286987-3h1.6051025v-6h-1.6050415c.2755127-1.0643311.6894531-2.0710449,1.2287598-3h4.3762817v-4.3762817c.9289551-.5393066,1.9356689-.9532471,3-1.2287598v1.6050415h6v-1.6051025c1.0643921.2754517,2.071106.6894531,3,1.2286987v4.3764038h4.3764038c.5393066.9289551.9532471,1.9356689,1.2286987,3h-1.6051025v6h1.6051636c-.2754517,1.0643921-.6893921,2.071106-1.2286377,3Z"/>
  </g>
</svg>