<?xml version="1.0" encoding="UTF-8"?>
<svg id="icon" xmlns="http://www.w3.org/2000/svg" version="1.1" viewBox="0 0 32 32">
  <!-- Generator: Adobe Illustrator 29.8.3, SVG Export Plug-In . SVG Version: 2.1.1 Build 3)  -->
  <defs>
    <style>
      .st0 {
        fill: none;
      }
    </style>
  </defs>
  <rect id="_Transparent_Rectangle_" class="st0" width="32" height="32"/>
  <path d="M16.7346896,31.7480472l-5.8592013-9.2089847-5.2472536,5.2472536c-.1017986.1017986-.2734574.0075672-.242227-.1329695l2.3674104-10.6533466H.3296667c-.1439694,0-.1987156-.1880221-.0772495-.2653086l9.2085204-5.8592031-5.246803-5.2472608c-.1017924-.1018013-.0075587-.2734534.1329753-.2422223l10.6528902,2.3674127V.3296334c0-.1439667.1880164-.1987149.2653058-.0772539l5.8596942,9.208558,5.2463123-5.2467701c.1017926-.1018015.2734532-.0075822.2422338.1329547l-2.3664758,10.6528779h7.4237634c.1439685,0,.1987153.18802.0772511.2653076l-9.2090224,5.8596924,5.2472208,5.2463052c.1018077.1017899.0075907.2734572-.1329489.2422385l-10.6533343-2.3664734v7.4237302c0,.1439712-.1880257.198716-.2653104.0772468ZM11.2241211,19.3613281l3.7758789,5.9345703v-3.5429688l6.8642578,1.5263672-2.5029297-2.5039062,5.9345703-3.7753906h-3.5429688l1.5263672-6.8647461-2.5039062,2.503418-3.7753906-5.934082v3.5419922l-6.8647461-1.5253906,2.503418,2.5029297-5.934082,3.7758789h3.5419922l-1.5253906,6.8642578,2.5029297-2.5029297Z"/>
</svg>