<?xml version="1.0" encoding="UTF-8"?>
<svg id="icon" xmlns="http://www.w3.org/2000/svg" version="1.1" viewBox="0 0 32 32">
  <!-- Generator: Adobe Illustrator 29.8.3, SVG Export Plug-In . SVG Version: 2.1.1 Build 3)  -->
  <defs>
    <style>
      .st0 {
        fill: none;
      }
    </style>
  </defs>
  <rect id="_Transparent_Rectangle_" class="st0" width="32" height="32"/>
  <path d="M16.215332,31.8076172l-2.7753906-8.3251953-7.9047852,4.5927734,2.2988281-8.7265625L.6894531,14.6865234l7.0864258-2.2568359-1.7255859-6.546875,7.2041016,2.7607422L14.9580078.2270508l4.9316406,8.4604492,7.5068359-3.7407227-3.3212891,8.4794922,6.4042969,2.4521484-7.0097656,3.5043945,4.859375,7.1503906-8.8457031-2.3320312-3.2680664,7.6064453ZM14.5600586,20.5175781l1.8916016,5.6748047,1.8754883-4.3642578,5.34375,1.4082031-3.140625-4.6191406,4.9902344-2.4956055-4.0429688-1.5478516,2.1630859-5.5205078-4.5361328,2.2592773-3.2285156-5.5395508-1.1303711,5.5834961-5.7666016-2.2099609,1.2148438,4.6123047-4.8833008,1.5546875,4.8251953,3.1484375-1.4394531,5.4628906,5.8637695-3.4072266Z"/>
</svg>