<?xml version="1.0" encoding="UTF-8"?>
<svg id="icon" xmlns="http://www.w3.org/2000/svg" version="1.1" viewBox="0 0 32 32">
  <!-- Generator: Adobe Illustrator 29.8.3, SVG Export Plug-In . SVG Version: 2.1.1 Build 3)  -->
  <defs>
    <style>
      .st0 {
        fill: none;
      }
    </style>
  </defs>
  <path d="M28,4.9990005c.0005684.3151131-.1477184.6119843-.3999996.8008003l-1.0860004.8145008c-2.0825939,1.5624561-4.7398853,2.1462078-7.2856007,1.6005001l-6.8761997-1.4736004c-1.9800386-.4249153-4.0470543.0290642-5.6668,1.2446003l-1.0853996.8141975c-.4418278.3313713-1.0686293.241827-1.4000001-.2000008-.3313711-.4418278-.2418282-1.0686283.1999998-1.3999996l1.0857-.8145008c2.0825939-1.5624542,4.7398844-2.1462078,7.2855997-1.6005001l6.8761997,1.4736004c1.9800377.4249153,4.0470543-.0290642,5.6667995-1.2446003l1.085701-.8139973c.4418278-.3313713,1.0686283-.2418289,1.3999996.1999989.1296177.172823.1997852.3829727.2000008.5990009Z"/>
  <path d="M28,9.9990005c.0005684.3151131-.1477184.6119843-.3999996.8008003l-1.0860004.8145008c-2.0825939,1.5624561-4.7398853,2.1462078-7.2856007,1.6005001l-6.8761997-1.4736004c-1.9800386-.4249153-4.0470543.0290642-5.6668,1.2446003l-1.0853996.8141975c-.4418278.3313713-1.0686293.241827-1.4000001-.2000008-.3313711-.4418278-.2418282-1.0686283.1999998-1.3999996l1.0857-.8145008c2.0825939-1.5624542,4.7398844-2.1462078,7.2855997-1.6005001l6.8761997,1.4736004c1.9800377.4249153,4.0470543-.0290642,5.6667995-1.2446003l1.085701-.8139973c.4418278-.3313713,1.0686283-.2418289,1.3999996.1999989.1296177.172823.1997852.3829727.2000008.5990009Z"/>
  <path d="M28,14.9990005c.0005684.3151131-.1477184.6119843-.3999996.8008003l-1.0860004.8144999c-2.0825939,1.5624552-4.7398853,2.1462088-7.2856007,1.6005001l-6.8761997-1.4736004c-1.9800386-.4249153-4.0470543.0290642-5.6668,1.2446003l-1.0853996.8141994c-.4418278.3313713-1.0686293.241828-1.4000001-.1999998-.3313711-.4418278-.2418282-1.0686293.1999998-1.4000006l1.0857-.8144999c2.0825939-1.5624542,4.7398844-2.1462078,7.2855997-1.6005001l6.8761997,1.4736004c1.9800377.4249153,4.0470543-.0290642,5.6667995-1.2446003l1.085701-.8139992c.4418278-.3313713,1.0686283-.2418289,1.3999996.1999989.1296177.172823.1997852.3829727.2000008.5990009Z"/>
  <path d="M28,19.9989996c.0005684.3151131-.1477184.6119852-.3999996.8008003l-1.0860004.8144999c-2.0825939,1.5624552-4.7398853,2.1462088-7.2856007,1.6005001l-6.8761997-1.4736004c-1.9800062-.4248848-4.046979.0290928-5.6666994,1.2446003l-1.0855002.8142004c-.4418278.3313708-1.0686293.2418275-1.4000001-.1999998-.3313708-.4418287-.2418277-1.0686302.2000003-1.4000006l1.0857-.8144999c2.0825944-1.5624552,4.7398849-2.1462088,7.2856002-1.6005001l6.8762007,1.4736004c1.9800377.4249153,4.0470543-.0290642,5.6667995-1.2446003l1.0856991-.8140001c.4418278-.3313713,1.0686283-.2418289,1.3999996.1999989.1296177.172822.1997852.3829727.2000008.5990009Z"/>
  <path d="M28,24.9990001c.0006313.3151836-.1476631.612143-.3999996.8010001l-1.0860004.8144999c-2.082674,1.5622807-4.7399578,2.1458497-7.2856007,1.5999999l-6.8761997-1.4735999c-1.9800501-.4247999-4.0470266.0292878-5.6666994,1.2448997l-1.0855002.8142002c-.4418278.3313708-1.0686293.2418277-1.4000001-.2000003-.3313706-.4418278-.2418275-1.068629.2000003-1.3999999l1.0857-.8144999c2.0825944-1.5624552,4.7398849-2.1462083,7.2856002-1.6005001l6.8760996,1.4738002c1.9800377.4249148,4.0470543-.0290637,5.6667995-1.2445998l1.0858002-.8142004c.4418278-.3313713,1.0686283-.2418289,1.3999996.1999984.1296177.172823.1997852.3829732.2000008.5990019Z"/>
  <rect id="_Transparent_Rectangle_" class="st0" width="32" height="32" transform="translate(0 32) rotate(-90)"/>
</svg>