<?xml version="1.0" encoding="UTF-8"?>
<svg id="icon" xmlns="http://www.w3.org/2000/svg" version="1.1" viewBox="0 0 32 32">
  <!-- Generator: Adobe Illustrator 29.8.3, SVG Export Plug-In . SVG Version: 2.1.1 Build 3)  -->
  <defs>
    <style>
      .st0 {
        fill: none;
      }
    </style>
  </defs>
  <rect id="_Transparent_Rectangle_" class="st0" width="32" height="32"/>
  <path d="M22.3599854,19.6400146c-1.789978,0-3.5100098-.4700317-5.0199585-1.3500366.9899902,3.3000488,4.0499878,5.710022,7.6599731,5.710022h1v2h-1c-4.6300049,0-8.539978-3.1699829-9.6699829-7.4500122-.6400146,1.1600342-.9700317,2.460022-.9700317,3.8099976,0,2.1400146.8300171,4.1500244,2.3500366,5.6600342l.6999512.7099609-1.4099731,1.4100342-.710022-.710022c-3.2799683-3.2700195-3.7999878-8.2700195-1.5700073-12.0999756-3.3099976.9899902-5.7199707,4.0499878-5.7199707,7.6699829v1h-2v-1c0-4.6300049,3.1699829-8.5300293,7.4400024-9.6599731-3.0300293-1.6500244-6.9000244-1.1900024-9.460022,1.3699951l-.7099609.6999512-1.4100342-1.4099731.7000122-.710022c1.8900146-1.8899536,4.4099731-2.9299927,7.0800171-2.9299927,1.789978,0,3.5100098.4700317,5.0199585,1.3500366-.9899902-3.3000488-4.0499878-5.710022-7.6599731-5.710022h-1v-2h1c4.6300049,0,8.539978,3.1699829,9.6699829,7.4500122.6300049-1.1600342.9700317-2.460022.9700317-3.8099976,0-2.1400146-.8400269-4.1500244-2.3500366-5.6600342l-.6999512-.7099609,1.4099731-1.4100342.710022.7000122c3.2799683,3.2800293,3.7999878,8.2800293,1.5700073,12.1099854,3.3099976-.9899902,5.7199707-4.0499878,5.7199707-7.6699829v-1h2v1c0,4.6300049-3.1699829,8.5300293-7.4400024,9.6599731,3.0300293,1.6500244,6.9000244,1.1900024,9.460022-1.3699951l.7099609-.6999512,1.4100342,1.4099731-.710022.710022c-1.8900146,1.8899536-4.3999634,2.9299927-7.0700073,2.9299927Z"/>
</svg>