<?xml version="1.0" encoding="UTF-8"?>
<svg id="icon" xmlns="http://www.w3.org/2000/svg" version="1.1" viewBox="0 0 32 32">
  <!-- Generator: Adobe Illustrator 30.0.0, SVG Export Plug-In . SVG Version: 2.1.1 Build 123)  -->
  <defs>
    <style>
      .st0 {
        fill: none;
      }
    </style>
  </defs>
  <rect id="_Transparent_Rectangle_" class="st0" width="32" height="32"/>
  <g>
    <path d="M30,12v16c0,1.0999756-.9000244,2-2,2H12c-1.0999756,0-2-.9000244-2-2v-4h2v4h16V12h-4v-2h4c1.0999756,0,2,.9000244,2,2Z"/>
    <path d="M22,4v4h-2v-4H4v16h4v2h-4c-1.0999756,0-2-.9000244-2-2V4c0-1.0999756.9000244-2,2-2h16c1.0999756,0,2,.9000244,2,2Z"/>
  </g>
  <rect x="10" y="10" width="12" height="12"/>
</svg>