<?xml version="1.0" encoding="UTF-8"?>
<svg id="icon" xmlns="http://www.w3.org/2000/svg" version="1.1" viewBox="0 0 32 32">
  <!-- Generator: Adobe Illustrator 30.0.0, SVG Export Plug-In . SVG Version: 2.1.1 Build 123)  -->
  <defs>
    <style>
      .st0 {
        fill: none;
      }
    </style>
  </defs>
  <path d="M20,10h5.2154999c-3.3121166-5.0910711-10.1242447-6.5331995-15.2153158-3.2210836-3.1196766,2.0295782-5.0011601,5.4993134-5.0001841,9.2210836h-2c.0026519-7.1823521,5.8272486-13.0026491,13.0096016-12.9999971,3.8604164.0014255,7.5206718,1.7178655,9.9903984,4.6848969v-3.6848998h2v8h-8v-2Z"/>
  <rect id="_Transparent_Rectangle_" class="st0" width="32" height="32"/>
  <path d="M12,22h-5.2154999c3.3121166,5.0910711,10.1242447,6.5331995,15.2153158,3.2210836,3.1196766-2.0295782,5.0011601-5.4993134,5.0001841-9.2210836h2c-.0026519,7.1823521-5.8272486,13.0026491-13.0096016,12.9999971-3.8604164-.0014255-7.5206718-1.7178655-9.9903984-4.6848969v3.6848998h-2v-8h8v2Z"/>
</svg>